<svg xmlns="http://www.w3.org/2000/svg" xmlns:xlink="http://www.w3.org/1999/xlink" width="500" zoomAndPan="magnify" viewBox="0 0 375 374.999991" height="500" preserveAspectRatio="xMidYMid meet" version="1.0"><defs><g/><clipPath id="55ef1e4d11"><path d="M 193 37.5 L 246 37.5 L 246 79 L 193 79 Z M 193 37.5 " clip-rule="nonzero"/></clipPath></defs><g fill="#6b3e0a" fill-opacity="1"><g transform="translate(22.878559, 291.498086)"><g><path d="M 13.109375 0 L 10.34375 -5.25 L 6.609375 -5.25 L 6.609375 0 L 1.859375 0 L 1.859375 -18.65625 L 10.203125 -18.65625 C 12.671875 -18.65625 14.578125 -18.085938 15.921875 -16.953125 C 17.273438 -15.828125 17.953125 -14.222656 17.953125 -12.140625 C 17.953125 -9.265625 16.828125 -7.269531 14.578125 -6.15625 L 18.484375 0 Z M 6.609375 -8.984375 L 10.203125 -8.984375 C 11.234375 -8.984375 12.03125 -9.238281 12.59375 -9.75 C 13.164062 -10.257812 13.453125 -11.003906 13.453125 -11.984375 C 13.453125 -12.941406 13.164062 -13.671875 12.59375 -14.171875 C 12.03125 -14.671875 11.234375 -14.921875 10.203125 -14.921875 L 6.609375 -14.921875 Z M 6.609375 -8.984375 "/></g></g></g><g fill="#6b3e0a" fill-opacity="1"><g transform="translate(42.828453, 291.498086)"><g><path d="M 14.25 -3.4375 L 6.09375 -3.4375 L 4.734375 0 L -0.140625 0 L 7.90625 -18.65625 L 12.78125 -18.65625 L 20.640625 0 L 15.578125 0 Z M 12.875 -7.03125 L 10.203125 -13.9375 L 7.484375 -7.03125 Z M 12.875 -7.03125 "/></g></g></g><g fill="#6b3e0a" fill-opacity="1"><g transform="translate(64.003579, 291.498086)"><g><path d="M 22.34375 0 L 18.171875 0 L 18.140625 -12.125 L 13.671875 -1.859375 L 10.578125 -1.859375 L 6.09375 -12.125 L 6.09375 0 L 1.859375 0 L 1.859375 -18.671875 L 7.0625 -18.671875 L 12.125 -7.5625 L 17.1875 -18.671875 L 22.34375 -18.671875 Z M 22.34375 0 "/></g></g></g><g fill="#6b3e0a" fill-opacity="1"><g transform="translate(88.90766, 291.498086)"><g><path d="M 14.25 -3.4375 L 6.09375 -3.4375 L 4.734375 0 L -0.140625 0 L 7.90625 -18.65625 L 12.78125 -18.65625 L 20.640625 0 L 15.578125 0 Z M 12.875 -7.03125 L 10.203125 -13.9375 L 7.484375 -7.03125 Z M 12.875 -7.03125 "/></g></g></g><g fill="#6b3e0a" fill-opacity="1"><g transform="translate(110.082782, 291.498086)"><g><path d="M 11.484375 -6.015625 L 11.484375 0 L 6.765625 0 L 6.765625 -5.890625 L -0.140625 -18.65625 L 4.609375 -18.65625 L 9.109375 -10.515625 L 13.5 -18.65625 L 18.25 -18.65625 Z M 11.484375 -6.015625 "/></g></g></g><g fill="#6b3e0a" fill-opacity="1"><g transform="translate(128.860726, 291.498086)"><g/></g></g><g fill="#6b3e0a" fill-opacity="1"><g transform="translate(135.706019, 291.498086)"><g><path d="M 9.03125 -18.859375 C 11.820312 -18.859375 14.273438 -18.164062 16.390625 -16.78125 L 14.59375 -13.078125 C 13.625 -13.648438 12.578125 -14.117188 11.453125 -14.484375 C 10.335938 -14.847656 9.394531 -15.03125 8.625 -15.03125 C 7.257812 -15.03125 6.578125 -14.578125 6.578125 -13.671875 C 6.578125 -13.078125 6.914062 -12.601562 7.59375 -12.25 C 8.269531 -11.894531 9.09375 -11.585938 10.0625 -11.328125 C 11.03125 -11.078125 11.992188 -10.769531 12.953125 -10.40625 C 13.921875 -10.039062 14.742188 -9.445312 15.421875 -8.625 C 16.097656 -7.8125 16.4375 -6.785156 16.4375 -5.546875 C 16.4375 -3.742188 15.734375 -2.34375 14.328125 -1.34375 C 12.929688 -0.34375 11.148438 0.15625 8.984375 0.15625 C 7.429688 0.15625 5.898438 -0.109375 4.390625 -0.640625 C 2.878906 -1.171875 1.566406 -1.898438 0.453125 -2.828125 L 2.296875 -6.46875 C 3.234375 -5.65625 4.34375 -4.984375 5.625 -4.453125 C 6.90625 -3.929688 8.039062 -3.671875 9.03125 -3.671875 C 9.789062 -3.671875 10.382812 -3.804688 10.8125 -4.078125 C 11.238281 -4.359375 11.453125 -4.765625 11.453125 -5.296875 C 11.453125 -5.816406 11.207031 -6.25 10.71875 -6.59375 C 10.226562 -6.9375 9.617188 -7.191406 8.890625 -7.359375 C 8.171875 -7.535156 7.382812 -7.765625 6.53125 -8.046875 C 5.675781 -8.328125 4.882812 -8.632812 4.15625 -8.96875 C 3.425781 -9.3125 2.816406 -9.847656 2.328125 -10.578125 C 1.835938 -11.316406 1.59375 -12.203125 1.59375 -13.234375 C 1.59375 -14.941406 2.269531 -16.304688 3.625 -17.328125 C 4.988281 -18.347656 6.789062 -18.859375 9.03125 -18.859375 Z M 9.03125 -18.859375 "/></g></g></g><g fill="#6b3e0a" fill-opacity="1"><g transform="translate(153.525083, 291.498086)"><g><path d="M 16.46875 -14.921875 L 6.609375 -14.921875 L 6.609375 -11.21875 L 15.5 -11.21875 L 15.5 -7.484375 L 6.609375 -7.484375 L 6.609375 -3.734375 L 16.75 -3.734375 L 16.75 0 L 1.859375 0 L 1.859375 -18.65625 L 16.46875 -18.65625 Z M 16.46875 -14.921875 "/></g></g></g><g fill="#6b3e0a" fill-opacity="1"><g transform="translate(172.143217, 291.498086)"><g><path d="M 16.46875 -14.921875 L 6.609375 -14.921875 L 6.609375 -11.21875 L 15.5 -11.21875 L 15.5 -7.484375 L 6.609375 -7.484375 L 6.609375 -3.734375 L 16.75 -3.734375 L 16.75 0 L 1.859375 0 L 1.859375 -18.65625 L 16.46875 -18.65625 Z M 16.46875 -14.921875 "/></g></g></g><g fill="#6b3e0a" fill-opacity="1"><g transform="translate(190.761351, 291.498086)"><g><path d="M 1.859375 -18.65625 L 9.890625 -18.65625 C 12.816406 -18.65625 15.195312 -17.789062 17.03125 -16.0625 C 18.875 -14.34375 19.796875 -12.097656 19.796875 -9.328125 C 19.796875 -6.566406 18.863281 -4.320312 17 -2.59375 C 15.132812 -0.863281 12.703125 0 9.703125 0 L 1.859375 0 Z M 6.609375 -14.859375 L 6.609375 -3.78125 L 9.984375 -3.78125 C 11.441406 -3.78125 12.632812 -4.289062 13.5625 -5.3125 C 14.5 -6.332031 14.96875 -7.660156 14.96875 -9.296875 C 14.96875 -10.929688 14.476562 -12.265625 13.5 -13.296875 C 12.53125 -14.335938 11.289062 -14.859375 9.78125 -14.859375 Z M 6.609375 -14.859375 "/></g></g></g><g fill="#6b3e0a" fill-opacity="1"><g transform="translate(211.856567, 291.498086)"><g><path d="M 9.03125 -18.859375 C 11.820312 -18.859375 14.273438 -18.164062 16.390625 -16.78125 L 14.59375 -13.078125 C 13.625 -13.648438 12.578125 -14.117188 11.453125 -14.484375 C 10.335938 -14.847656 9.394531 -15.03125 8.625 -15.03125 C 7.257812 -15.03125 6.578125 -14.578125 6.578125 -13.671875 C 6.578125 -13.078125 6.914062 -12.601562 7.59375 -12.25 C 8.269531 -11.894531 9.09375 -11.585938 10.0625 -11.328125 C 11.03125 -11.078125 11.992188 -10.769531 12.953125 -10.40625 C 13.921875 -10.039062 14.742188 -9.445312 15.421875 -8.625 C 16.097656 -7.8125 16.4375 -6.785156 16.4375 -5.546875 C 16.4375 -3.742188 15.734375 -2.34375 14.328125 -1.34375 C 12.929688 -0.34375 11.148438 0.15625 8.984375 0.15625 C 7.429688 0.15625 5.898438 -0.109375 4.390625 -0.640625 C 2.878906 -1.171875 1.566406 -1.898438 0.453125 -2.828125 L 2.296875 -6.46875 C 3.234375 -5.65625 4.34375 -4.984375 5.625 -4.453125 C 6.90625 -3.929688 8.039062 -3.671875 9.03125 -3.671875 C 9.789062 -3.671875 10.382812 -3.804688 10.8125 -4.078125 C 11.238281 -4.359375 11.453125 -4.765625 11.453125 -5.296875 C 11.453125 -5.816406 11.207031 -6.25 10.71875 -6.59375 C 10.226562 -6.9375 9.617188 -7.191406 8.890625 -7.359375 C 8.171875 -7.535156 7.382812 -7.765625 6.53125 -8.046875 C 5.675781 -8.328125 4.882812 -8.632812 4.15625 -8.96875 C 3.425781 -9.3125 2.816406 -9.847656 2.328125 -10.578125 C 1.835938 -11.316406 1.59375 -12.203125 1.59375 -13.234375 C 1.59375 -14.941406 2.269531 -16.304688 3.625 -17.328125 C 4.988281 -18.347656 6.789062 -18.859375 9.03125 -18.859375 Z M 9.03125 -18.859375 "/></g></g></g><g fill="#6b3e0a" fill-opacity="1"><g transform="translate(229.675631, 291.498086)"><g/></g></g><g fill="#6b3e0a" fill-opacity="1"><g transform="translate(236.520924, 291.498086)"><g><path d="M 1.859375 -18.65625 L 9.984375 -18.65625 C 12.367188 -18.65625 14.21875 -18.085938 15.53125 -16.953125 C 16.84375 -15.828125 17.5 -14.222656 17.5 -12.140625 C 17.5 -9.960938 16.84375 -8.269531 15.53125 -7.0625 C 14.21875 -5.851562 12.367188 -5.25 9.984375 -5.25 L 6.609375 -5.25 L 6.609375 0 L 1.859375 0 Z M 6.609375 -14.921875 L 6.609375 -8.984375 L 9.75 -8.984375 C 10.800781 -8.984375 11.609375 -9.238281 12.171875 -9.75 C 12.742188 -10.257812 13.03125 -11.003906 13.03125 -11.984375 C 13.03125 -12.941406 12.742188 -13.671875 12.171875 -14.171875 C 11.609375 -14.671875 10.800781 -14.921875 9.75 -14.921875 Z M 6.609375 -14.921875 "/></g></g></g><g fill="#6b3e0a" fill-opacity="1"><g transform="translate(255.298869, 291.498086)"><g><path d="M 12.125 0 L 7.21875 0 L -0.03125 -18.65625 L 5.03125 -18.65625 L 9.796875 -4.921875 L 14.578125 -18.65625 L 19.453125 -18.65625 Z M 12.125 0 "/></g></g></g><g fill="#6b3e0a" fill-opacity="1"><g transform="translate(275.38195, 291.498086)"><g><path d="M 16.125 -14.84375 L 10.5 -14.84375 L 10.5 0 L 5.75 0 L 5.75 -14.84375 L 0.1875 -14.84375 L 0.1875 -18.671875 L 16.125 -18.671875 Z M 16.125 -14.84375 "/></g></g></g><g fill="#6b3e0a" fill-opacity="1"><g transform="translate(292.322054, 291.498086)"><g/></g></g><g fill="#6b3e0a" fill-opacity="1"><g transform="translate(299.167361, 291.498086)"><g><path d="M 6.609375 -3.96875 L 14.515625 -3.96875 L 14.515625 0 L 1.859375 0 L 1.859375 -18.65625 L 6.609375 -18.65625 Z M 6.609375 -3.96875 "/></g></g></g><g fill="#6b3e0a" fill-opacity="1"><g transform="translate(314.749058, 291.498086)"><g><path d="M 16.125 -14.84375 L 10.5 -14.84375 L 10.5 0 L 5.75 0 L 5.75 -14.84375 L 0.1875 -14.84375 L 0.1875 -18.671875 L 16.125 -18.671875 Z M 16.125 -14.84375 "/></g></g></g><g fill="#6b3e0a" fill-opacity="1"><g transform="translate(331.689161, 291.498086)"><g><path d="M 1.859375 -18.65625 L 9.890625 -18.65625 C 12.816406 -18.65625 15.195312 -17.789062 17.03125 -16.0625 C 18.875 -14.34375 19.796875 -12.097656 19.796875 -9.328125 C 19.796875 -6.566406 18.863281 -4.320312 17 -2.59375 C 15.132812 -0.863281 12.703125 0 9.703125 0 L 1.859375 0 Z M 6.609375 -14.859375 L 6.609375 -3.78125 L 9.984375 -3.78125 C 11.441406 -3.78125 12.632812 -4.289062 13.5625 -5.3125 C 14.5 -6.332031 14.96875 -7.660156 14.96875 -9.296875 C 14.96875 -10.929688 14.476562 -12.265625 13.5 -13.296875 C 12.53125 -14.335938 11.289062 -14.859375 9.78125 -14.859375 Z M 6.609375 -14.859375 "/></g></g></g><g fill="#33443c" fill-opacity="1"><g transform="translate(72.660452, 314.913748)"><g><path d="M 1.015625 0 L 1.015625 -11.734375 L 5.640625 -11.734375 C 6.972656 -11.734375 8.003906 -11.382812 8.734375 -10.6875 C 9.472656 -9.988281 9.84375 -9.054688 9.84375 -7.890625 C 9.84375 -7.085938 9.664062 -6.398438 9.3125 -5.828125 C 8.957031 -5.265625 8.445312 -4.84375 7.78125 -4.5625 L 10.265625 0 L 7.53125 0 L 5.3125 -4.15625 L 3.5 -4.15625 L 3.5 0 Z M 3.5 -6.15625 L 5.1875 -6.15625 C 6.59375 -6.15625 7.296875 -6.734375 7.296875 -7.890625 C 7.296875 -9.097656 6.585938 -9.703125 5.171875 -9.703125 L 3.5 -9.703125 Z M 3.5 -6.15625 "/></g></g></g><g fill="#33443c" fill-opacity="1"><g transform="translate(84.859205, 314.913748)"><g><path d="M 3.046875 0 L 0.390625 0 L 4.4375 -11.734375 L 7.625 -11.734375 L 11.671875 0 L 9.015625 0 L 8.140625 -2.671875 L 3.90625 -2.671875 Z M 4.546875 -4.609375 L 7.515625 -4.609375 L 6.078125 -9.046875 L 5.984375 -9.046875 Z M 4.546875 -4.609375 "/></g></g></g><g fill="#33443c" fill-opacity="1"><g transform="translate(98.535814, 314.913748)"><g><path d="M 1.015625 -11.734375 L 4.078125 -11.734375 L 7.3125 -3.84375 L 7.4375 -3.84375 L 10.671875 -11.734375 L 13.734375 -11.734375 L 13.734375 0 L 11.328125 0 L 11.328125 -7.640625 L 11.234375 -7.640625 L 8.1875 -0.0625 L 6.5625 -0.0625 L 3.515625 -7.65625 L 3.421875 -7.65625 L 3.421875 0 L 1.015625 0 Z M 1.015625 -11.734375 "/></g></g></g><g fill="#33443c" fill-opacity="1"><g transform="translate(115.053599, 314.913748)"><g><path d="M 3.046875 0 L 0.390625 0 L 4.4375 -11.734375 L 7.625 -11.734375 L 11.671875 0 L 9.015625 0 L 8.140625 -2.671875 L 3.90625 -2.671875 Z M 4.546875 -4.609375 L 7.515625 -4.609375 L 6.078125 -9.046875 L 5.984375 -9.046875 Z M 4.546875 -4.609375 "/></g></g></g><g fill="#33443c" fill-opacity="1"><g transform="translate(128.73021, 314.913748)"><g><path d="M 0.328125 -11.734375 L 3.109375 -11.734375 L 5.78125 -6.671875 L 5.890625 -6.671875 L 8.578125 -11.734375 L 11.34375 -11.734375 L 7.078125 -4.140625 L 7.078125 0 L 4.609375 0 L 4.609375 -4.140625 Z M 0.328125 -11.734375 "/></g></g></g><g fill="#33443c" fill-opacity="1"><g transform="translate(142.028772, 314.913748)"><g/></g></g><g fill="#33443c" fill-opacity="1"><g transform="translate(147.382352, 314.913748)"><g><path d="M 0.890625 0 L 0.890625 -1.46875 L 6.75 -9.6875 L 0.875 -9.6875 L 0.875 -11.734375 L 9.859375 -11.734375 L 9.859375 -10.25 L 4 -2.046875 L 9.875 -2.046875 L 9.875 0 Z M 0.890625 0 "/></g></g></g><g fill="#33443c" fill-opacity="1"><g transform="translate(159.752951, 314.913748)"><g><path d="M 3.046875 0 L 0.390625 0 L 4.4375 -11.734375 L 7.625 -11.734375 L 11.671875 0 L 9.015625 0 L 8.140625 -2.671875 L 3.90625 -2.671875 Z M 4.546875 -4.609375 L 7.515625 -4.609375 L 6.078125 -9.046875 L 5.984375 -9.046875 Z M 4.546875 -4.609375 "/></g></g></g><g fill="#33443c" fill-opacity="1"><g transform="translate(173.429557, 314.913748)"><g><path d="M 1.015625 0 L 1.015625 -11.734375 L 5.640625 -11.734375 C 6.972656 -11.734375 8.003906 -11.382812 8.734375 -10.6875 C 9.472656 -9.988281 9.84375 -9.054688 9.84375 -7.890625 C 9.84375 -7.085938 9.664062 -6.398438 9.3125 -5.828125 C 8.957031 -5.265625 8.445312 -4.84375 7.78125 -4.5625 L 10.265625 0 L 7.53125 0 L 5.3125 -4.15625 L 3.5 -4.15625 L 3.5 0 Z M 3.5 -6.15625 L 5.1875 -6.15625 C 6.59375 -6.15625 7.296875 -6.734375 7.296875 -7.890625 C 7.296875 -9.097656 6.585938 -9.703125 5.171875 -9.703125 L 3.5 -9.703125 Z M 3.5 -6.15625 "/></g></g></g><g fill="#33443c" fill-opacity="1"><g transform="translate(185.628305, 314.913748)"><g><path d="M 3.046875 0 L 0.390625 0 L 4.4375 -11.734375 L 7.625 -11.734375 L 11.671875 0 L 9.015625 0 L 8.140625 -2.671875 L 3.90625 -2.671875 Z M 4.546875 -4.609375 L 7.515625 -4.609375 L 6.078125 -9.046875 L 5.984375 -9.046875 Z M 4.546875 -4.609375 "/></g></g></g><g fill="#33443c" fill-opacity="1"><g transform="translate(199.304911, 314.913748)"><g><path d="M 3.5 -11.734375 L 3.5 0 L 1.015625 0 L 1.015625 -11.734375 Z M 3.5 -11.734375 "/></g></g></g><g fill="#33443c" fill-opacity="1"><g transform="translate(205.443257, 314.913748)"><g/></g></g><g fill="#33443c" fill-opacity="1"><g transform="translate(210.796832, 314.913748)"><g><path d="M 7.375 -8.359375 C 7.332031 -8.816406 7.132812 -9.171875 6.78125 -9.421875 C 6.4375 -9.679688 5.96875 -9.8125 5.375 -9.8125 C 4.769531 -9.8125 4.304688 -9.6875 3.984375 -9.4375 C 3.660156 -9.1875 3.5 -8.875 3.5 -8.5 C 3.488281 -8.082031 3.664062 -7.765625 4.03125 -7.546875 C 4.40625 -7.328125 4.84375 -7.160156 5.34375 -7.046875 L 6.40625 -6.796875 C 7.082031 -6.640625 7.679688 -6.414062 8.203125 -6.125 C 8.734375 -5.84375 9.148438 -5.472656 9.453125 -5.015625 C 9.765625 -4.554688 9.921875 -4 9.921875 -3.34375 C 9.910156 -2.269531 9.503906 -1.414062 8.703125 -0.78125 C 7.910156 -0.144531 6.796875 0.171875 5.359375 0.171875 C 3.941406 0.171875 2.804688 -0.148438 1.953125 -0.796875 C 1.109375 -1.453125 0.671875 -2.414062 0.640625 -3.6875 L 3.046875 -3.6875 C 3.085938 -3.09375 3.316406 -2.644531 3.734375 -2.34375 C 4.160156 -2.050781 4.695312 -1.90625 5.34375 -1.90625 C 5.96875 -1.90625 6.46875 -2.039062 6.84375 -2.3125 C 7.21875 -2.582031 7.410156 -2.929688 7.421875 -3.359375 C 7.410156 -3.753906 7.234375 -4.054688 6.890625 -4.265625 C 6.546875 -4.484375 6.054688 -4.671875 5.421875 -4.828125 L 4.140625 -5.140625 C 3.148438 -5.378906 2.367188 -5.753906 1.796875 -6.265625 C 1.222656 -6.785156 0.941406 -7.476562 0.953125 -8.34375 C 0.941406 -9.050781 1.128906 -9.671875 1.515625 -10.203125 C 1.898438 -10.734375 2.425781 -11.144531 3.09375 -11.4375 C 3.769531 -11.738281 4.535156 -11.890625 5.390625 -11.890625 C 6.265625 -11.890625 7.023438 -11.738281 7.671875 -11.4375 C 8.328125 -11.144531 8.832031 -10.734375 9.1875 -10.203125 C 9.550781 -9.671875 9.738281 -9.054688 9.75 -8.359375 Z M 7.375 -8.359375 "/></g></g></g><g fill="#33443c" fill-opacity="1"><g transform="translate(222.972669, 314.913748)"><g><path d="M 1.015625 0 L 1.015625 -11.734375 L 8.921875 -11.734375 L 8.921875 -9.6875 L 3.5 -9.6875 L 3.5 -6.890625 L 8.515625 -6.890625 L 8.515625 -4.84375 L 3.5 -4.84375 L 3.5 -2.046875 L 8.9375 -2.046875 L 8.9375 0 Z M 1.015625 0 "/></g></g></g><g fill="#33443c" fill-opacity="1"><g transform="translate(234.466846, 314.913748)"><g><path d="M 1.015625 0 L 1.015625 -11.734375 L 5.640625 -11.734375 C 6.972656 -11.734375 8.003906 -11.382812 8.734375 -10.6875 C 9.472656 -9.988281 9.84375 -9.054688 9.84375 -7.890625 C 9.84375 -7.085938 9.664062 -6.398438 9.3125 -5.828125 C 8.957031 -5.265625 8.445312 -4.84375 7.78125 -4.5625 L 10.265625 0 L 7.53125 0 L 5.3125 -4.15625 L 3.5 -4.15625 L 3.5 0 Z M 3.5 -6.15625 L 5.1875 -6.15625 C 6.59375 -6.15625 7.296875 -6.734375 7.296875 -7.890625 C 7.296875 -9.097656 6.585938 -9.703125 5.171875 -9.703125 L 3.5 -9.703125 Z M 3.5 -6.15625 "/></g></g></g><g fill="#33443c" fill-opacity="1"><g transform="translate(246.665605, 314.913748)"><g><path d="M 3.140625 -11.734375 L 5.96875 -2.8125 L 6.078125 -2.8125 L 8.921875 -11.734375 L 11.671875 -11.734375 L 7.625 0 L 4.4375 0 L 0.390625 -11.734375 Z M 3.140625 -11.734375 "/></g></g></g><g fill="#33443c" fill-opacity="1"><g transform="translate(260.34221, 314.913748)"><g><path d="M 3.5 -11.734375 L 3.5 0 L 1.015625 0 L 1.015625 -11.734375 Z M 3.5 -11.734375 "/></g></g></g><g fill="#33443c" fill-opacity="1"><g transform="translate(266.480557, 314.913748)"><g><path d="M 11.359375 -7.625 L 8.859375 -7.625 C 8.765625 -8.269531 8.488281 -8.773438 8.03125 -9.140625 C 7.582031 -9.503906 7.015625 -9.6875 6.328125 -9.6875 C 5.421875 -9.6875 4.691406 -9.351562 4.140625 -8.6875 C 3.597656 -8.03125 3.328125 -7.085938 3.328125 -5.859375 C 3.328125 -4.609375 3.601562 -3.65625 4.15625 -3 C 4.707031 -2.351562 5.425781 -2.03125 6.3125 -2.03125 C 6.976562 -2.03125 7.539062 -2.203125 8 -2.546875 C 8.457031 -2.890625 8.742188 -3.378906 8.859375 -4.015625 L 11.359375 -4 C 11.273438 -3.28125 11.019531 -2.601562 10.59375 -1.96875 C 10.175781 -1.332031 9.601562 -0.816406 8.875 -0.421875 C 8.144531 -0.0351562 7.28125 0.15625 6.28125 0.15625 C 5.226562 0.15625 4.289062 -0.078125 3.46875 -0.546875 C 2.644531 -1.023438 1.992188 -1.710938 1.515625 -2.609375 C 1.046875 -3.503906 0.8125 -4.585938 0.8125 -5.859375 C 0.8125 -7.140625 1.050781 -8.226562 1.53125 -9.125 C 2.007812 -10.019531 2.660156 -10.703125 3.484375 -11.171875 C 4.316406 -11.648438 5.25 -11.890625 6.28125 -11.890625 C 7.1875 -11.890625 8 -11.722656 8.71875 -11.390625 C 9.445312 -11.054688 10.039062 -10.570312 10.5 -9.9375 C 10.96875 -9.300781 11.253906 -8.53125 11.359375 -7.625 Z M 11.359375 -7.625 "/></g></g></g><g fill="#33443c" fill-opacity="1"><g transform="translate(280.225917, 314.913748)"><g><path d="M 1.015625 0 L 1.015625 -11.734375 L 8.921875 -11.734375 L 8.921875 -9.6875 L 3.5 -9.6875 L 3.5 -6.890625 L 8.515625 -6.890625 L 8.515625 -4.84375 L 3.5 -4.84375 L 3.5 -2.046875 L 8.9375 -2.046875 L 8.9375 0 Z M 1.015625 0 "/></g></g></g><g fill="#33443c" fill-opacity="1"><g transform="translate(291.720094, 314.913748)"><g><path d="M 7.375 -8.359375 C 7.332031 -8.816406 7.132812 -9.171875 6.78125 -9.421875 C 6.4375 -9.679688 5.96875 -9.8125 5.375 -9.8125 C 4.769531 -9.8125 4.304688 -9.6875 3.984375 -9.4375 C 3.660156 -9.1875 3.5 -8.875 3.5 -8.5 C 3.488281 -8.082031 3.664062 -7.765625 4.03125 -7.546875 C 4.40625 -7.328125 4.84375 -7.160156 5.34375 -7.046875 L 6.40625 -6.796875 C 7.082031 -6.640625 7.679688 -6.414062 8.203125 -6.125 C 8.734375 -5.84375 9.148438 -5.472656 9.453125 -5.015625 C 9.765625 -4.554688 9.921875 -4 9.921875 -3.34375 C 9.910156 -2.269531 9.503906 -1.414062 8.703125 -0.78125 C 7.910156 -0.144531 6.796875 0.171875 5.359375 0.171875 C 3.941406 0.171875 2.804688 -0.148438 1.953125 -0.796875 C 1.109375 -1.453125 0.671875 -2.414062 0.640625 -3.6875 L 3.046875 -3.6875 C 3.085938 -3.09375 3.316406 -2.644531 3.734375 -2.34375 C 4.160156 -2.050781 4.695312 -1.90625 5.34375 -1.90625 C 5.96875 -1.90625 6.46875 -2.039062 6.84375 -2.3125 C 7.21875 -2.582031 7.410156 -2.929688 7.421875 -3.359375 C 7.410156 -3.753906 7.234375 -4.054688 6.890625 -4.265625 C 6.546875 -4.484375 6.054688 -4.671875 5.421875 -4.828125 L 4.140625 -5.140625 C 3.148438 -5.378906 2.367188 -5.753906 1.796875 -6.265625 C 1.222656 -6.785156 0.941406 -7.476562 0.953125 -8.34375 C 0.941406 -9.050781 1.128906 -9.671875 1.515625 -10.203125 C 1.898438 -10.734375 2.425781 -11.144531 3.09375 -11.4375 C 3.769531 -11.738281 4.535156 -11.890625 5.390625 -11.890625 C 6.265625 -11.890625 7.023438 -11.738281 7.671875 -11.4375 C 8.328125 -11.144531 8.832031 -10.734375 9.1875 -10.203125 C 9.550781 -9.671875 9.738281 -9.054688 9.75 -8.359375 Z M 7.375 -8.359375 "/></g></g></g><path fill="#87cb28" d="M 159.664062 95.234375 C 157.972656 96.351562 156.441406 97.507812 155.070312 98.648438 C 149.398438 103.347656 146.460938 107.726562 146.460938 107.726562 C 146.460938 107.726562 151.101562 104.910156 158.640625 102.414062 C 160.515625 101.792969 162.570312 101.191406 164.777344 100.65625 C 177.992188 97.472656 196.664062 96.734375 215.035156 108.832031 C 215.035156 108.832031 194.558594 99.007812 171.074219 106.238281 C 169.277344 106.789062 167.464844 107.445312 165.636719 108.210938 C 161.570312 109.917969 157.453125 112.179688 153.375 115.132812 C 173.355469 133.792969 192.894531 129.28125 208.75 124.164062 C 210.746094 123.523438 212.679688 122.871094 214.554688 122.25 C 222.996094 119.464844 229.945312 118.621094 235.011719 118.523438 C 241.078125 118.410156 244.445312 119.371094 244.445312 119.371094 C 204.28125 77.863281 175.265625 84.90625 159.664062 95.234375 " fill-opacity="1" fill-rule="nonzero"/><g clip-path="url(#55ef1e4d11)"><path fill="#87cb28" d="M 240.355469 41.046875 C 237.445312 42.636719 233.226562 44.410156 227.53125 45.570312 C 226.269531 45.824219 224.957031 46.085938 223.617188 46.363281 C 212.957031 48.605469 200.402344 52.386719 195.117188 69.457031 C 198.390625 69.8125 201.460938 69.757812 204.324219 69.40625 C 205.609375 69.25 206.851562 69.03125 208.050781 68.761719 C 223.722656 65.246094 232.15625 53.027344 232.15625 53.027344 C 225.652344 65.855469 214.820312 71.496094 206.285156 73.972656 C 204.859375 74.386719 203.5 74.710938 202.234375 74.96875 C 197.144531 75.996094 193.59375 75.902344 193.59375 75.902344 C 193.59375 75.902344 196.683594 77.4375 201.429688 78.265625 C 202.574219 78.464844 203.820312 78.625 205.140625 78.710938 C 217.347656 79.511719 236.101562 74.09375 245.429688 37.503906 C 245.429688 37.503906 243.832031 39.140625 240.355469 41.046875 " fill-opacity="1" fill-rule="nonzero"/></g><path fill="#87cb28" d="M 226.769531 244.089844 C 181.921875 253.300781 138.101562 224.410156 128.890625 179.566406 C 119.679688 134.722656 148.570312 90.898438 193.414062 81.6875 C 211.449219 77.988281 229.316406 80.445312 244.835938 87.625 C 226.449219 76.902344 204.203125 72.648438 181.710938 77.269531 C 133.246094 87.222656 102.027344 134.578125 111.984375 183.039062 C 121.9375 231.5 169.289062 262.71875 217.753906 252.765625 C 240.246094 248.148438 259.019531 235.46875 271.6875 218.367188 C 260.253906 231.082031 244.804688 240.386719 226.769531 244.089844 " fill-opacity="1" fill-rule="nonzero"/><path fill="#6b3e0a" d="M 141.273438 167.105469 C 139.472656 167.71875 137.726562 168.375 136.042969 169.070312 C 204.859375 177.972656 233.511719 213.414062 244.507812 233.890625 C 251.550781 230.488281 258.042969 226.042969 263.816406 220.652344 C 253.382812 209.761719 212.628906 172.335938 141.273438 167.105469 Z M 193.78125 161.886719 C 175.210938 160.15625 157.792969 161.945312 143.601562 166.355469 C 166.03125 165.90625 229.585938 168.902344 270.707031 213.457031 C 270.714844 213.390625 270.722656 213.324219 270.730469 213.253906 C 272.984375 189.050781 238.53125 166.054688 193.78125 161.886719 Z M 135 169.515625 C 134.234375 169.84375 133.480469 170.1875 132.738281 170.53125 C 175.273438 183.902344 196.238281 216.007812 206.449219 241.699219 C 212.960938 241.992188 219.507812 241.484375 225.960938 240.160156 C 227.828125 239.777344 229.671875 239.320312 231.488281 238.8125 C 206.921875 189.59375 154.378906 173.785156 135 169.515625 Z M 131.660156 171.378906 C 131.933594 173.839844 132.316406 176.300781 132.820312 178.757812 C 139.027344 208.980469 161.632812 232.140625 190.757812 239.402344 C 175.023438 198.496094 144.136719 178.183594 131.660156 171.378906 " fill-opacity="1" fill-rule="nonzero"/></svg>