<svg xmlns="http://www.w3.org/2000/svg" xmlns:xlink="http://www.w3.org/1999/xlink" width="400" height="400" fill="#ffff" version="1.1" viewBox="0 0 100 100" xml:space="preserve"><g id="SVGRepo_iconCarrier"><g id="watering"><g><path d="M92.6,32.5c-2.2-1.5-4.8-1.9-7.3-1l-6.8,2.4c-0.8-2.7-1.8-5.4-2.9-8.1c0.2-0.2,0.4-0.5,0.4-0.8v-6c0-0.6-0.4-1-1-1h-6v-2 c0-6.6-5.4-12-12-12c-6.6,0-12,5.4-12,12v2h-6c-0.6,0-1,0.4-1,1v6c0,0.3,0.2,0.6,0.4,0.8c-3.8,9-6,18.6-6.5,28.4l-0.3,5.4 l-11.9-28l0.9-0.4c0.5-0.2,0.7-0.8,0.5-1.3l-2.4-5.5c-0.2-0.5-0.8-0.7-1.3-0.5L4.6,29.3c-0.2,0.1-0.4,0.3-0.5,0.5s-0.1,0.5,0,0.8 l2.4,5.5c0.1,0.2,0.3,0.4,0.5,0.5c0.1,0,0.2,0.1,0.4,0.1c0.1,0,0.3,0,0.4-0.1l0.9-0.4l21.5,50.4L30,89.6c-0.1,1.7,0.5,3.2,1.6,4.5 c1.1,1.2,2.8,1.9,4.4,1.9h41.8c1.7,0,3.3-0.7,4.4-1.9c1.2-1.2,1.7-2.8,1.6-4.5v0L83.5,81H88c4.4,0,8-3.6,8-8V39 C96,36.4,94.8,34,92.6,32.5z M82.1,54.2c-0.2-4.3-0.8-8.5-1.6-12.6l5.3-2.4c0.7-0.3,1.5-0.3,2.2,0.2c0.7,0.4,1,1.1,1,1.9v29.4 c0,1.3-1,2.3-2.3,2.3h-3.6L82.1,54.2z M47,16c0-5.5,4.5-10,10-10s10,4.5,10,10v2H47V16z M40,20h6h22h6v4H40V20z M6.3,30.8l11-4.7 l1.6,3.7l-4.8,2.1l-5.3,2.3c0,0,0,0,0,0l-0.9,0.4L6.3,30.8z M80.9,92.7c-0.8,0.8-1.8,1.3-3,1.3H36.1c-1.1,0-2.2-0.5-3-1.3 c-0.8-0.8-1.2-1.9-1.1-3l0.2-3.2c0-0.2-0.1-0.5-0.2-0.6L10.5,35.5l7.4-3.1l13.6,31.9c0.2,0.4,0.6,0.7,1.1,0.6 c0.5-0.1,0.8-0.5,0.8-0.9l0.5-9.7c0.5-9.8,2.7-19.3,6.5-28.3h33c3.8,9,6,18.5,6.5,28.3L82,89.7l0,0C82.1,90.8,81.7,91.9,80.9,92.7 z M94,73c0,3.3-2.7,6-6,6h-4.6l-0.2-4h3.5c2.4,0,4.3-1.9,4.3-4.3V41.3c0-1.5-0.7-2.8-2-3.6c-1.2-0.8-2.8-0.9-4.1-0.3L80,39.6 c-0.3-1.3-0.6-2.5-1-3.8l6.9-2.4c1.9-0.7,3.9-0.4,5.5,0.8C93.1,35.3,94,37,94,39V73z"/><path d="M56.3,37.3C55.7,37.9,42,52.7,42,64c0,8.3,6.7,15,15,15c8.3,0,15-6.7,15-15c0-11.3-13.7-26.1-14.3-26.7 C57.4,36.9,56.6,36.9,56.3,37.3z M57,77c-7.2,0-13-5.8-13-13c0-9.1,10.2-21.3,13-24.5c2.8,3.2,13,15.4,13,24.5 C70,71.2,64.2,77,57,77z"/></g></g></g></svg>