<?xml version="1.0" encoding="iso-8859-1"?>
<!-- Uploaded to: SVG Repo, www.svgrepo.com, Generator: SVG Repo Mixer Tools -->
<svg fill="#000000" height="800px" width="800px" version="1.1" id="Layer_1" xmlns="http://www.w3.org/2000/svg" xmlns:xlink="http://www.w3.org/1999/xlink" 
	 viewBox="0 0 512.001 512.001" xml:space="preserve">
<g>
	<g>
		<path d="M369.711,137.784l-28.555-14.883v-11.232c0-14.259-11.6-25.859-25.859-25.859h-51.482v-4.904h24.827
			c4.315,0,7.813-3.498,7.813-7.813V7.813c0-4.315-3.498-7.813-7.813-7.813H223.36c-4.315,0-7.813,3.498-7.813,7.813v65.28
			c0,4.315,3.498,7.813,7.813,7.813h24.828v4.904h-51.483c-14.259,0-25.859,11.6-25.859,25.859v11.232l-28.555,14.883
			c-13.228,6.894-21.445,20.443-21.445,35.359v37.923c0,0.003,0,0.006,0,0.01v116.237c0,4.315,3.498,7.813,7.813,7.813
			c4.315,0,7.813-3.498,7.813-7.813V218.89h166.457c4.315,0,7.813-3.498,7.813-7.813s-3.498-7.813-7.813-7.813H136.47v-30.121
			c0-9.071,4.997-17.31,13.041-21.503l32.757-17.073c2.582-1.346,4.202-4.016,4.202-6.928v-15.97
			c0-5.643,4.591-10.234,10.234-10.234h118.594c5.643,0,10.234,4.591,10.234,10.234v15.97c0,2.912,1.62,5.583,4.202,6.928
			l32.757,17.073c8.044,4.192,13.041,12.432,13.041,21.503v30.121h-46.994c-4.315,0-7.813,3.498-7.813,7.813
			s3.498,7.813,7.813,7.813h46.993v194.8H136.47v-60.681c0-4.315-3.498-7.813-7.813-7.813c-4.315,0-7.813,3.498-7.813,7.813v68.494
			c0,0.003,0,0.006,0,0.01v50.615c0,21.986,17.887,39.874,39.874,39.874h190.564c21.986,0,39.874-17.887,39.874-39.874V173.143
			C391.156,158.227,382.939,144.678,369.711,137.784z M231.172,65.28V15.626h49.655v14.801h-8.16c-4.315,0-7.813,3.498-7.813,7.813
			s3.498,7.813,7.813,7.813h8.16V65.28H231.172z M375.531,472.126c0,13.37-10.879,24.248-24.249,24.248H160.718
			c-13.37,0-24.248-10.878-24.248-24.248v-42.811h239.06V472.126z"/>
	</g>
</g>
<g>
	<g>
		<path d="M336.726,351.859c-0.345-2.624-1.994-4.895-4.382-6.034l-22.48-10.722c-0.349-6.105-1.327-11.989-2.857-17.551
			l25.639-13.617c2.231-1.185,3.752-3.376,4.081-5.882l5.135-39.08c0.563-4.278-2.45-8.201-6.728-8.764
			c-4.277-0.559-8.201,2.45-8.764,6.728l-4.611,35.087l-20.429,10.85c-1.832-3.581-3.92-6.932-6.232-10.012
			c2.306-5.323,3.515-11.086,3.515-16.937c0-23.498-19.116-42.614-42.614-42.614s-42.614,19.116-42.614,42.614
			c0,5.85,1.208,11.614,3.515,16.936c-2.312,3.08-4.399,6.429-6.232,10.012l-20.429-10.85l-4.611-35.087
			c-0.563-4.278-4.482-7.291-8.764-6.728c-4.278,0.563-7.291,4.486-6.728,8.764l5.135,39.08c0.329,2.505,1.85,4.697,4.081,5.881
			l25.639,13.617c-1.531,5.562-2.508,11.445-2.857,17.551l-22.476,10.723c-2.389,1.14-4.038,3.411-4.382,6.034l-5.135,39.08
			c-0.563,4.278,2.45,8.202,6.728,8.764c0.345,0.045,0.689,0.068,1.027,0.068c3.863,0,7.22-2.864,7.737-6.796l4.581-34.873
			l12.606-6.013c4.479,32.116,26.614,56.591,53.181,56.591c26.568,0,48.702-24.475,53.181-56.591l12.606,6.013l4.581,34.873
			c0.517,3.932,3.874,6.796,7.737,6.796c0.339,0,0.682-0.022,1.027-0.068c4.278-0.563,7.291-4.486,6.728-8.764L336.726,351.859z
			 M256.001,248.938c14.882,0,26.989,12.107,26.989,26.989c0,1.499-0.125,2.99-0.369,4.455c-4.881-3.495-10.172-5.997-15.68-7.431
			c-0.034-0.009-0.069-0.019-0.103-0.028c-0.824-0.212-1.653-0.401-2.487-0.566c-0.124-0.024-0.249-0.046-0.373-0.069
			c-0.739-0.139-1.48-0.259-2.225-0.359c-0.109-0.015-0.217-0.033-0.326-0.047c-0.796-0.101-1.596-0.176-2.397-0.232
			c-0.185-0.014-0.371-0.024-0.556-0.034c-0.822-0.047-1.645-0.079-2.471-0.079c-0.826,0-1.649,0.032-2.471,0.079
			c-0.185,0.01-0.371,0.021-0.556,0.034c-0.802,0.056-1.601,0.131-2.397,0.232c-0.109,0.014-0.218,0.032-0.326,0.047
			c-0.745,0.1-1.487,0.221-2.225,0.359c-0.124,0.024-0.249,0.045-0.373,0.069c-0.833,0.165-1.663,0.353-2.487,0.566
			c-0.034,0.009-0.069,0.019-0.104,0.028c-5.508,1.433-10.798,3.937-15.68,7.431c-0.245-1.466-0.369-2.955-0.369-4.455
			C229.012,261.044,241.119,248.938,256.001,248.938z M256.001,393.054c-21.173,0-38.398-23.751-38.398-52.946
			c0-7.737,1.22-15.085,3.393-21.717c0.202-0.281,0.39-0.577,0.556-0.892c0.524-0.985,0.81-2.033,0.889-3.079
			c2.276-5.633,5.276-10.634,8.826-14.767c0.236-0.207,0.463-0.429,0.676-0.667c3.455-3.855,8.586-8.227,15.288-10.416
			c0.345-0.111,0.687-0.231,1.034-0.33c0.039-0.01,0.079-0.019,0.118-0.029c0.586-0.164,1.177-0.311,1.772-0.438
			c0.031-0.006,0.064-0.01,0.094-0.017c0.6-0.125,1.203-0.232,1.812-0.319c0.163-0.023,0.331-0.033,0.496-0.053
			c0.48-0.059,0.96-0.118,1.446-0.152c0.655-0.046,1.321-0.072,1.998-0.072c0.677,0,1.343,0.026,1.998,0.072
			c0.484,0.034,0.966,0.093,1.445,0.152c0.164,0.02,0.333,0.03,0.496,0.053c0.608,0.085,1.212,0.194,1.812,0.319
			c0.031,0.006,0.064,0.01,0.094,0.017c0.596,0.126,1.186,0.274,1.772,0.438c0.039,0.01,0.079,0.019,0.118,0.029
			c0.348,0.099,0.691,0.219,1.034,0.33c6.702,2.189,11.834,6.561,15.288,10.416c0.207,0.231,0.43,0.446,0.66,0.648
			c3.556,4.137,6.562,9.144,8.841,14.785c0.078,1.046,0.365,2.093,0.889,3.079c0.167,0.315,0.355,0.61,0.556,0.892
			c2.173,6.632,3.393,13.98,3.393,21.717C294.398,369.303,277.173,393.054,256.001,393.054z"/>
	</g>
</g>
</svg>