<!DOCTYPE svg PUBLIC "-//W3C//DTD SVG 1.1//EN" "http://www.w3.org/Graphics/SVG/1.1/DTD/svg11.dtd">
<!-- Uploaded to: SVG Repo, www.svgrepo.com, Transformed by: SVG Repo Mixer Tools -->
<svg fill="#f54d4d" version="1.1" id="Layer_1" xmlns="http://www.w3.org/2000/svg" xmlns:xlink="http://www.w3.org/1999/xlink" width="800px" height="800px" viewBox="0 0 512 512" enable-background="new 0 0 512 512" xml:space="preserve">
<g id="SVGRepo_bgCarrier" stroke-width="0"/>
<g id="SVGRepo_tracerCarrier" stroke-linecap="round" stroke-linejoin="round"/>
<g id="SVGRepo_iconCarrier"> <g> <path d="M359.923,345.662c0,0-120.985,0.354-122.68,0.354c-11.336,0-22.342-5.035-30.622-12.781l-71.666-66.887 c-3.671-3.444-3.873-9.202-0.437-12.873c3.42-3.687,9.202-3.865,12.873-0.453l71.666,66.903 c10.125,9.497,27.065,9.066,36.821-0.784c11.322-13.394,10.252-33.461-2.715-45.564l-76.395-71.334 c-6.131-5.725-14.209-8.911-22.602-8.911L18.744,208.783C13.196,209.414,9,214.112,9,219.699v94.848 c0,6.056,4.892,10.964,10.948,10.989l51.735,0.202c12.824,0.048,25.292,4.213,35.561,11.887l83.521,62.383 c10.334,7.722,22.891,11.894,35.788,11.894h133.37c18.29,0,33.12-14.83,33.12-33.12S378.213,345.662,359.923,345.662z"/> <path d="M311.917,327.194c12.193,0,22.075-9.881,22.075-22.083c0-12.193-9.882-22.075-22.075-22.075 c-12.202,0-22.083,9.881-22.083,22.075C289.834,317.313,299.715,327.194,311.917,327.194z"/> <path d="M367.111,238.871c0-12.193-9.882-22.075-22.075-22.075c-12.202,0-22.083,9.882-22.083,22.075 c0,12.202,9.881,22.083,22.083,22.083C357.229,260.954,367.111,251.072,367.111,238.871z"/> <path d="M256.714,238.871c0,12.202,9.881,22.083,22.083,22.083c12.193,0,22.075-9.881,22.075-22.083 c0-12.193-9.881-22.075-22.075-22.075C266.595,216.796,256.714,226.678,256.714,238.871z"/> <path d="M245.676,194.713c12.193,0,22.075-9.881,22.075-22.083c0-12.193-9.881-22.075-22.075-22.075 c-12.201,0-22.083,9.881-22.083,22.075C223.594,184.832,233.475,194.713,245.676,194.713z"/> <path d="M311.917,194.713c12.193,0,22.075-9.881,22.075-22.083c0-12.193-9.882-22.075-22.075-22.075 c-12.202,0-22.083,9.881-22.083,22.075C289.834,184.832,299.715,194.713,311.917,194.713z"/> <path d="M356.074,172.63c0,12.202,9.881,22.083,22.083,22.083c12.193,0,22.075-9.881,22.075-22.083 c0-12.193-9.881-22.075-22.075-22.075C365.955,150.556,356.074,160.437,356.074,172.63z"/> <path d="M322.954,106.39c0,12.202,9.881,22.083,22.083,22.083c12.193,0,22.075-9.881,22.075-22.083 c0-12.193-9.882-22.075-22.075-22.075C332.835,84.315,322.954,94.197,322.954,106.39z"/> <path d="M278.796,128.473c12.193,0,22.075-9.881,22.075-22.083c0-12.193-9.881-22.075-22.075-22.075 c-12.201,0-22.083,9.881-22.083,22.075C256.714,118.592,266.595,128.473,278.796,128.473z"/> <path d="M311.917,62.232c12.193,0,22.075-9.881,22.075-22.083c0-12.193-9.882-22.075-22.075-22.075 c-12.202,0-22.083,9.881-22.083,22.075C289.834,52.351,299.715,62.232,311.917,62.232z"/> <path d="M433.352,238.871c0-12.193-9.881-22.075-22.074-22.075c-12.202,0-22.083,9.882-22.083,22.075 c0,12.202,9.881,22.083,22.083,22.083C423.47,260.954,433.352,251.072,433.352,238.871z"/> <path d="M378.157,283.036c-12.202,0-22.083,9.881-22.083,22.075c0,12.202,9.881,22.083,22.083,22.083 c12.193,0,22.075-9.881,22.075-22.083C400.231,292.917,390.35,283.036,378.157,283.036z"/> <path d="M466.472,305.111c0-12.193-9.881-22.075-22.075-22.075c-12.201,0-22.083,9.881-22.083,22.075 c0,12.202,9.881,22.083,22.083,22.083C456.59,327.194,466.472,317.313,466.472,305.111z"/> <path d="M483.032,371.351c0-12.193-9.881-22.075-22.075-22.075c-12.201,0-22.083,9.881-22.083,22.075 c0,12.202,9.882,22.083,22.083,22.083C473.15,393.434,483.032,383.553,483.032,371.351z"/> <path d="M477.517,415.517c-12.201,0-22.083,9.882-22.083,22.075c0,12.202,9.881,22.083,22.083,22.083 c12.193,0,22.075-9.881,22.075-22.083C499.592,425.398,489.71,415.517,477.517,415.517z"/> </g> </g>
</svg>